<svg width="148" height="148" viewBox="0 0 148 148" fill="none" xmlns="http://www.w3.org/2000/svg">
<circle cx="74" cy="74" r="74" fill="#C4C4C4"/>
<path d="M51.59 81.5653C41.645 81.5653 33.59 90.2818 33.59 101.044C33.59 111.805 41.645 120.522 51.59 120.522C61.535 120.522 69.59 111.805 69.59 101.044C69.59 90.2818 61.535 81.5653 51.59 81.5653ZM51.59 110.783C46.64 110.783 42.59 106.4 42.59 101.044C42.59 95.6871 46.64 91.3045 51.59 91.3045C56.54 91.3045 60.59 95.6871 60.59 101.044C60.59 106.4 56.54 110.783 51.59 110.783ZM78.5 81.5653V120.522H114.5V81.5653H78.5ZM105.5 110.783H87.5V91.3045H105.5V110.783ZM51.5 28L29 71.8262H74L51.5 28ZM51.5 48.0626L58.7 62.087H44.3L51.5 48.0626ZM106.625 30.4348C101.855 30.4348 98.48 33.1617 96.5 36.1322C94.52 33.1617 91.145 30.4348 86.375 30.4348C79.355 30.4348 74 36.6678 74 43.8261C74 53.5653 84.89 60.4801 96.5 71.8262C108.11 60.4801 119 53.5653 119 43.8261C119 36.6678 113.645 30.4348 106.625 30.4348ZM96.5 58.9218C89.975 52.9809 83 47.2348 83 43.8261C83 41.7322 84.575 40.1739 86.375 40.1739C87.77 40.1739 88.715 41.0018 89.66 41.9757L96.5 48.9392L103.34 41.9757C104.285 41.0018 105.23 40.1739 106.625 40.1739C108.425 40.1739 110 41.7322 110 43.8261C110 47.2348 103.025 52.9809 96.5 58.9218Z" fill="#2A2C33"/>
</svg>
