<svg width="148" height="148" viewBox="0 0 148 148" fill="none" xmlns="http://www.w3.org/2000/svg">
<circle cx="74" cy="74" r="74" fill="#C4C4C4"/>
<path d="M73.9022 17C43.5962 17 19 41.4071 19 71.4801C19 101.553 43.5962 125.96 73.9022 125.96C104.208 125.96 128.804 101.553 128.804 71.4801C128.804 41.4071 104.208 17 73.9022 17ZM73.9022 33.344C83.0159 33.344 90.3728 40.6444 90.3728 49.6881C90.3728 58.7318 83.0159 66.0321 73.9022 66.0321C64.7884 66.0321 57.4315 58.7318 57.4315 49.6881C57.4315 40.6444 64.7884 33.344 73.9022 33.344ZM73.9022 110.706C67.379 110.706 60.9572 109.104 55.2095 106.043C49.4618 102.982 44.5667 98.5573 40.9609 93.1632C41.1256 82.3216 62.9217 76.3833 73.9022 76.3833C84.8277 76.3833 106.679 82.3216 106.843 93.1632C103.238 98.5573 98.3426 102.982 92.5948 106.043C86.8471 109.104 80.4253 110.706 73.9022 110.706Z" fill="#2A2C33"/>
</svg>
