<svg width="3172" height="276" viewBox="0 0 3172 276" fill="none" xmlns="http://www.w3.org/2000/svg">
<path fill-rule="evenodd" clip-rule="evenodd" d="M0 0.966797L131.322 11.3004C265.122 21.634 527.767 42.3013 792.889 77.2766C1058.01 113.047 1320.66 163.92 1585.78 174.254C1850.9 184.587 2113.54 153.586 2378.67 144.048C2643.79 133.714 2906.43 144.048 3040.23 148.817L3171.56 153.586V276H3040.23C2906.43 276 2643.79 276 2378.67 276C2113.54 276 1850.9 276 1585.78 276C1320.66 276 1058.01 276 792.889 276C527.767 276 265.122 276 131.322 276H0V0.966797Z" fill="#F1E0AC"/>
<path fill-rule="evenodd" clip-rule="evenodd" d="M0 110.98L105.719 132.983C211.437 154.985 422.874 198.991 634.311 187.989C845.748 176.988 1057.19 110.98 1268.62 66.9748C1480.06 22.9695 1691.5 0.966797 1902.93 0.966797C2114.37 0.966797 2325.81 22.9695 2537.24 61.4741C2748.68 99.9788 2960.12 154.985 3065.84 182.489L3171.56 209.992V276H3065.84C2960.12 276 2748.68 276 2537.24 276C2325.81 276 2114.37 276 1902.93 276C1691.5 276 1480.06 276 1268.62 276C1057.19 276 845.748 276 634.311 276C422.874 276 211.437 276 105.719 276H0V110.98Z" fill="#E5E5E5" fill-opacity="0.13"/>
</svg>
